<svg width="48" height="48" viewBox="0 0 48 48" fill="none" xmlns="http://www.w3.org/2000/svg">
<path d="M18.2002 4.5H29.7998C32.4845 4.5 34.4082 4.50078 35.917 4.62402C37.4084 4.74587 38.3625 4.98006 39.1318 5.37207C40.6371 6.13906 41.8609 7.36287 42.6279 8.86816C43.0199 9.63754 43.2541 10.5916 43.376 12.083C43.4992 13.5918 43.5 15.5155 43.5 18.2002V29.7998C43.5 32.4845 43.4992 34.4082 43.376 35.917C43.2541 37.4084 43.0199 38.3625 42.6279 39.1318C41.8609 40.6371 40.6371 41.8609 39.1318 42.6279C38.3625 43.0199 37.4084 43.2541 35.917 43.376C34.4082 43.4992 32.4845 43.5 29.7998 43.5H18.2002C15.5155 43.5 13.5918 43.4992 12.083 43.376C10.5916 43.2541 9.63754 43.0199 8.86816 42.6279C7.36287 41.8609 6.13906 40.6371 5.37207 39.1318C4.98006 38.3625 4.74587 37.4084 4.62402 35.917C4.50078 34.4082 4.5 32.4845 4.5 29.7998V18.2002C4.5 15.5155 4.50078 13.5918 4.62402 12.083C4.74587 10.5916 4.98006 9.63754 5.37207 8.86816C6.13906 7.36287 7.36287 6.13906 8.86816 5.37207C9.63754 4.98006 10.5916 4.74587 12.083 4.62402C13.5918 4.50078 15.5155 4.5 18.2002 4.5Z" stroke="white" stroke-width="3"/>
<path d="M23.3526 29.3944H16.8442L15.52 33.6134C15.4832 33.7702 15.3389 33.8812 15.1819 33.8735H11.8854C11.6974 33.8735 11.6317 33.7676 11.6882 33.5556L17.3231 16.9107C17.3795 16.7374 17.4359 16.5399 17.4922 16.3183C17.5659 15.9328 17.6037 15.5409 17.6049 15.148C17.5888 15.0319 17.6908 14.9294 17.8022 14.9457H22.2819C22.4132 14.9457 22.4883 14.9939 22.5073 15.0902L28.9031 33.5845C28.9594 33.7773 28.9031 33.8737 28.734 33.8735H25.0712C24.9428 33.8881 24.8201 33.8 24.7895 33.6712L23.3526 29.3944ZM17.8585 25.7533H22.3101C21.5787 23.2541 20.7533 20.7876 20.0843 18.2689C19.3625 20.7919 18.575 23.3047 17.8585 25.7533Z" fill="white"/>
<path d="M32.7064 18.0087C32.419 18.0206 32.1324 17.9701 31.8654 17.8605C31.5984 17.751 31.3569 17.5848 31.1568 17.373C30.9572 17.152 30.8021 16.8927 30.7006 16.61C30.599 16.3273 30.553 16.0268 30.565 15.7258C30.5548 15.4278 30.6059 15.1309 30.7152 14.8546C30.8244 14.5782 30.9893 14.3286 31.199 14.122C31.4066 13.9176 31.6518 13.7574 31.9202 13.6508C32.1886 13.5441 32.4749 13.4931 32.7627 13.5007C33.4389 13.5007 33.9696 13.7078 34.3546 14.122C34.549 14.3373 34.7 14.5897 34.7991 14.8649C34.8982 15.1401 34.9434 15.4327 34.9322 15.7258C34.9439 16.028 34.8964 16.3295 34.7923 16.6125C34.6883 16.8954 34.5298 17.1541 34.3264 17.373C34.1138 17.5879 33.8601 17.7554 33.5813 17.8648C33.3025 17.9742 33.0046 18.0232 32.7064 18.0087ZM30.7622 33.5844V19.7714C30.7622 19.5981 30.8371 19.5114 30.9877 19.5114H34.4532C34.6033 19.5114 34.6785 19.5981 34.6786 19.7714V33.5844C34.6786 33.7772 34.6035 33.8736 34.4532 33.8734H31.0158C30.8468 33.8734 30.7623 33.7771 30.7622 33.5844Z" fill="white"/>
</svg>
