<svg width="48" height="48" viewBox="0 0 48 48" fill="none" xmlns="http://www.w3.org/2000/svg">
<path d="M29.7998 42V45H18.2002V42H29.7998ZM42 29.7998V18.2002C42 15.4907 41.998 13.6387 41.8809 12.2051C41.7666 10.8065 41.5583 10.0715 41.292 9.54883C40.6688 8.32578 39.6742 7.33119 38.4512 6.70801C37.9285 6.44169 37.1935 6.23341 35.7949 6.11914C34.7198 6.03132 33.4095 6.0081 31.6787 6.00195L29.7998 6H18.2002C15.4907 6 13.6387 6.00204 12.2051 6.11914C10.8065 6.23341 10.0715 6.44169 9.54883 6.70801C8.32578 7.33118 7.33118 8.32578 6.70801 9.54883C6.44169 10.0715 6.23341 10.8065 6.11914 12.2051C6.00204 13.6387 6 15.4907 6 18.2002V29.7998C6 32.5093 6.00204 34.3613 6.11914 35.7949C6.23341 37.1935 6.44169 37.9285 6.70801 38.4512C7.33119 39.6742 8.32578 40.6688 9.54883 41.292C10.0715 41.5583 10.8065 41.7666 12.2051 41.8809C13.6387 41.998 15.4907 42 18.2002 42V45L16.3252 44.998C12.5171 44.9849 10.2975 44.8859 8.57617 44.1465L8.1875 43.9648C6.39996 43.054 4.94595 41.6 4.03516 39.8125C2.99994 37.7804 3 35.1199 3 29.7998V18.2002C3 13.2123 3.00036 10.5624 3.85352 8.57617L4.03516 8.1875C4.88894 6.51185 6.2198 5.12958 7.85547 4.21289L8.1875 4.03516C9.96552 3.12938 12.2245 3.01611 16.3252 3.00195L18.2002 3H29.7998C35.1199 3 37.7804 2.99994 39.8125 4.03516C41.6 4.94595 43.054 6.39996 43.9648 8.1875C45.0001 10.2196 45 12.8801 45 18.2002V29.7998C45 35.1199 45.0001 37.7804 43.9648 39.8125L43.7871 40.1445C42.8704 41.7802 41.4882 43.1111 39.8125 43.9648L39.4238 44.1465C37.4376 44.9996 34.7877 45 29.7998 45V42C32.5093 42 34.3613 41.998 35.7949 41.8809C37.1935 41.7666 37.9285 41.5583 38.4512 41.292C39.6742 40.6688 40.6688 39.6742 41.292 38.4512C41.5583 37.9285 41.7666 37.1935 41.8809 35.7949C41.998 34.3613 42 32.5093 42 29.7998Z" fill="white"/>
<path d="M23.3526 29.3944H16.8442L15.52 33.6134C15.4832 33.7702 15.3389 33.8812 15.1819 33.8735H11.8854C11.6974 33.8735 11.6317 33.7676 11.6882 33.5556L17.3231 16.9107C17.3795 16.7374 17.4359 16.5399 17.4922 16.3183C17.5659 15.9328 17.6037 15.5409 17.6049 15.148C17.5888 15.0319 17.6908 14.9294 17.8022 14.9457H22.2819C22.4132 14.9457 22.4883 14.9939 22.5073 15.0902L28.9031 33.5845C28.9594 33.7773 28.9031 33.8737 28.734 33.8735H25.0712C24.9428 33.8881 24.8201 33.8 24.7895 33.6712L23.3526 29.3944ZM17.8585 25.7533H22.3101C21.5787 23.2541 20.7533 20.7876 20.0843 18.2689C19.3625 20.7919 18.575 23.3047 17.8585 25.7533Z" fill="white"/>
<path d="M32.7064 18.0087C32.419 18.0206 32.1324 17.9701 31.8654 17.8605C31.5984 17.751 31.3569 17.5848 31.1568 17.373C30.9572 17.152 30.8021 16.8927 30.7006 16.61C30.599 16.3273 30.553 16.0268 30.565 15.7258C30.5548 15.4278 30.6059 15.1309 30.7152 14.8546C30.8244 14.5782 30.9893 14.3286 31.199 14.122C31.4066 13.9176 31.6518 13.7574 31.9202 13.6508C32.1886 13.5441 32.4749 13.4931 32.7627 13.5007C33.4389 13.5007 33.9696 13.7078 34.3546 14.122C34.549 14.3373 34.7 14.5897 34.7991 14.8649C34.8982 15.1401 34.9434 15.4327 34.9322 15.7258C34.9439 16.028 34.8964 16.3295 34.7923 16.6125C34.6883 16.8954 34.5298 17.1541 34.3264 17.373C34.1138 17.5879 33.8601 17.7554 33.5813 17.8648C33.3025 17.9742 33.0046 18.0232 32.7064 18.0087ZM30.7622 33.5844V19.7714C30.7622 19.5981 30.8371 19.5114 30.9877 19.5114H34.4532C34.6033 19.5114 34.6785 19.5981 34.6786 19.7714V33.5844C34.6786 33.7772 34.6035 33.8736 34.4532 33.8734H31.0158C30.8468 33.8734 30.7623 33.7771 30.7622 33.5844Z" fill="white"/>
</svg>
