<svg width="48" height="48" viewBox="0 0 48 48" fill="none" xmlns="http://www.w3.org/2000/svg">
<path d="M29.7998 42V45H18.2002V42H29.7998ZM42 29.7998V18.2002C42 15.4907 41.998 13.6387 41.8809 12.2051C41.7666 10.8065 41.5583 10.0715 41.292 9.54883C40.6688 8.32578 39.6742 7.33118 38.4512 6.70801C37.9285 6.44169 37.1935 6.23341 35.7949 6.11914C34.3613 6.00204 32.5093 6 29.7998 6H18.2002C15.4907 6 13.6387 6.00204 12.2051 6.11914C10.8065 6.23341 10.0715 6.44169 9.54883 6.70801C8.32578 7.33118 7.33118 8.32578 6.70801 9.54883C6.44169 10.0715 6.23341 10.8065 6.11914 12.2051C6.00204 13.6387 6 15.4907 6 18.2002V29.7998C6 32.5093 6.00204 34.3613 6.11914 35.7949C6.23341 37.1935 6.44169 37.9285 6.70801 38.4512C7.33118 39.6742 8.32578 40.6688 9.54883 41.292C10.0715 41.5583 10.8065 41.7666 12.2051 41.8809C13.6387 41.998 15.4907 42 18.2002 42V45L16.3252 44.998C12.5171 44.9849 10.2975 44.8859 8.57617 44.1465L8.1875 43.9648C6.39996 43.054 4.94595 41.6 4.03516 39.8125C2.99994 37.7804 3 35.1199 3 29.7998V18.2002C3 13.2123 3.00036 10.5624 3.85352 8.57617L4.03516 8.1875C4.88894 6.51185 6.2198 5.12958 7.85547 4.21289L8.1875 4.03516C9.96552 3.12938 12.2245 3.01611 16.3252 3.00195L18.2002 3H29.7998C35.1199 3 37.7804 2.99994 39.8125 4.03516C41.6 4.94595 43.054 6.39996 43.9648 8.1875C45.0001 10.2196 45 12.8801 45 18.2002V29.7998C45 35.1199 45.0001 37.7804 43.9648 39.8125L43.7871 40.1445C42.8704 41.7802 41.4882 43.1111 39.8125 43.9648L39.4238 44.1465C37.4376 44.9996 34.7877 45 29.7998 45V42C32.5093 42 34.3613 41.998 35.7949 41.8809C37.1935 41.7666 37.9285 41.5583 38.4512 41.292C39.6742 40.6688 40.6688 39.6742 41.292 38.4512C41.5583 37.9285 41.7666 37.1935 41.8809 35.7949C41.998 34.3613 42 32.5093 42 29.7998Z" fill="white"/>
<path d="M20.684 29.3458H14.1756L12.8514 33.5729C12.8146 33.7296 12.6703 33.8406 12.5133 33.8329H9.21681C9.02882 33.8329 8.96308 33.727 9.01959 33.5151L14.6545 16.9389C14.7109 16.7656 14.7672 16.5961 14.8236 16.3744C14.8973 15.9888 14.9351 15.597 14.9363 15.2041C14.9202 15.088 15.0204 14.9852 15.1336 15.0018H19.6133C19.7446 15.0018 19.8197 15.0499 19.8387 15.1463L26.2345 33.544C26.2908 33.7368 26.2345 33.8331 26.0654 33.8329H22.4026C22.2742 33.8475 22.1515 33.7595 22.1209 33.6307L20.684 29.3458ZM15.1899 25.7816H19.6415C18.9101 23.2823 18.0847 20.8159 17.4157 18.2971C16.6576 20.9099 15.9576 23.333 15.1899 25.7816Z" fill="white"/>
<path d="M30.9912 27.7135C31.2502 29.8599 33.0526 30.8832 35.0484 30.8396C36.1738 30.8175 37.3766 30.6428 38.4281 30.2172C38.5219 30.1405 38.569 30.1883 38.569 30.3617V33.107C38.5779 33.2498 38.5182 33.3774 38.3999 33.4537C37.093 34.0475 35.5925 34.2265 34.175 34.2038C29.9483 34.2038 27.0455 31.2257 27.0467 26.8927C27.0357 22.7866 29.6995 19.3225 33.8369 19.3225C37.344 19.2316 39.772 22.0396 39.7818 25.5346C39.7818 26.1712 39.7463 26.8099 39.6691 27.4418C39.6542 27.572 39.5433 27.673 39.4155 27.673C36.6145 27.673 33.7999 27.7135 30.9912 27.7135ZM30.9912 25.0811C32.5522 25.0811 34.1223 25.1362 35.6823 25.0666C35.9168 25.0426 36.0909 24.9982 36.0909 24.7543C36.0584 23.4586 34.9649 22.393 33.6961 22.4425C32.1629 22.3475 31.1818 23.6416 30.9912 25.0811Z" fill="white"/>
</svg>
