<svg width="48" height="48" viewBox="0 0 48 48" fill="none" xmlns="http://www.w3.org/2000/svg">
<path d="M29.7998 42V45H18.2002V42H29.7998ZM42 29.7998V18.2002C42 15.4907 41.998 13.6387 41.8809 12.2051C41.7666 10.8065 41.5583 10.0715 41.292 9.54883C40.6688 8.32578 39.6742 7.33119 38.4512 6.70801C37.9285 6.44169 37.1935 6.23341 35.7949 6.11914C34.7198 6.03132 33.4095 6.0081 31.6787 6.00195L29.7998 6H18.2002C15.4907 6 13.6387 6.00204 12.2051 6.11914C10.8065 6.23341 10.0715 6.44169 9.54883 6.70801C8.32578 7.33118 7.33118 8.32578 6.70801 9.54883C6.44169 10.0715 6.23341 10.8065 6.11914 12.2051C6.00204 13.6387 6 15.4907 6 18.2002V29.7998C6 32.5093 6.00204 34.3613 6.11914 35.7949C6.23341 37.1935 6.44169 37.9285 6.70801 38.4512C7.33119 39.6742 8.32578 40.6688 9.54883 41.292C10.0715 41.5583 10.8065 41.7666 12.2051 41.8809C13.6387 41.998 15.4907 42 18.2002 42V45L16.3252 44.998C12.5171 44.9849 10.2975 44.8859 8.57617 44.1465L8.1875 43.9648C6.39996 43.054 4.94595 41.6 4.03516 39.8125C2.99994 37.7804 3 35.1199 3 29.7998V18.2002C3 13.2123 3.00036 10.5624 3.85352 8.57617L4.03516 8.1875C4.88894 6.51185 6.2198 5.12958 7.85547 4.21289L8.1875 4.03516C9.96552 3.12938 12.2245 3.01611 16.3252 3.00195L18.2002 3H29.7998C35.1199 3 37.7804 2.99994 39.8125 4.03516C41.6 4.94595 43.054 6.39996 43.9648 8.1875C45.0001 10.2196 45 12.8801 45 18.2002V29.7998C45 35.1199 45.0001 37.7804 43.9648 39.8125L43.7871 40.1445C42.8704 41.7802 41.4882 43.1111 39.8125 43.9648L39.4238 44.1465C37.4376 44.9996 34.7877 45 29.7998 45V42C32.5093 42 34.3613 41.998 35.7949 41.8809C37.1935 41.7666 37.9285 41.5583 38.4512 41.292C39.6742 40.6688 40.6688 39.6742 41.292 38.4512C41.5583 37.9285 41.7666 37.1935 41.8809 35.7949C41.998 34.3613 42 32.5093 42 29.7998Z" fill="white"/>
<path d="M12 32.6935V13.8119C12 13.6835 12.0527 13.6101 12.1755 13.6101C13.9894 13.6101 15.8024 13.5 17.6167 13.5C20.5607 13.5 23.7484 14.526 24.8658 17.6653C25.1291 18.436 25.2695 19.225 25.2695 20.0508C25.2695 21.6288 24.9184 22.9316 24.2164 23.9592C22.2551 26.8296 18.8559 26.785 15.8088 26.785V32.6752C15.8327 32.8495 15.6869 32.9321 15.5456 32.9321H12.2106C12.0702 32.9321 12 32.8587 12 32.6935ZM15.8264 17.1515V23.317C17.0346 23.4072 18.2988 23.417 19.4597 23.0234C20.7413 22.6466 21.4431 21.5158 21.4431 20.1608C21.4787 19.0063 20.8615 17.8985 19.8107 17.4818C18.6639 16.9958 17.0644 16.9667 15.8264 17.1515Z" fill="white"/>
<path d="M27.6488 18.3179H30.7291C30.8989 18.3194 31.0514 18.4421 31.0964 18.6133C31.3222 19.1373 31.35 19.7692 31.3508 20.3349C31.879 19.6919 32.516 19.1561 33.2299 18.7544C33.9957 18.3014 34.8637 18.0719 35.7434 18.0897C35.8894 18.0679 36.0186 18.203 35.9978 18.3556V21.9302C35.9978 22.0682 35.9032 22.137 35.7152 22.137C34.4114 22.043 32.3816 22.365 31.4342 23.4369V32.7315C31.4342 32.9088 31.3588 32.9974 31.2081 32.9974H27.9032C27.7408 33.0218 27.5976 32.869 27.6205 32.702V22.6097C27.6205 21.2573 27.6486 19.8643 27.451 18.5247C27.4206 18.4015 27.5335 18.2868 27.6488 18.3179Z" fill="white"/>
</svg>
