<?xml version="1.0" encoding="UTF-8"?>
<svg id="Calque_1" xmlns="http://www.w3.org/2000/svg" viewBox="0 0 2104.67 2060.03">
  <defs>
    <style>
      .cls-1 {
        fill: #b498a0;
      }

      .cls-1, .cls-2, .cls-3, .cls-4, .cls-5, .cls-6, .cls-7, .cls-8, .cls-9, .cls-10, .cls-11, .cls-12, .cls-13, .cls-14, .cls-15, .cls-16, .cls-17, .cls-18 {
        stroke: #431022;
        stroke-miterlimit: 10;
      }

      .cls-1, .cls-3, .cls-4, .cls-5, .cls-6, .cls-7, .cls-8, .cls-9, .cls-10, .cls-11, .cls-12, .cls-13, .cls-15, .cls-16, .cls-17, .cls-18 {
        stroke-width: 50px;
      }

      .cls-2 {
        fill: none;
      }

      .cls-2, .cls-14 {
        stroke-width: 120px;
      }

      .cls-3 {
        fill: #e7dee1;
      }

      .cls-4 {
        fill: #d0bec3;
      }

      .cls-5 {
        fill: #ccb9bf;
      }

      .cls-19 {
        fill: #e83b68;
      }

      .cls-6 {
        fill: #8f6672;
      }

      .cls-7 {
        fill: #b599a1;
      }

      .cls-8 {
        fill: #643141;
      }

      .cls-9 {
        fill: #96707b;
      }

      .cls-10 {
        fill: #daccd0;
      }

      .cls-11 {
        fill: #cebbc1;
      }

      .cls-12 {
        fill: #e6dbde;
      }

      .cls-13 {
        fill: #baa0a8;
      }

      .cls-14 {
        fill: #98727d;
      }

      .cls-15 {
        fill: #865966;
      }

      .cls-16 {
        fill: #baa0a7;
      }

      .cls-17 {
        fill: #d1bfc4;
      }

      .cls-18 {
        fill: #e5dbde;
      }
    </style>
  </defs>
  <path class="cls-2" d="M2045.97,383.06c-.9-.88-.98-1.93-.96-3,0-.35.03-.7.03-1.06,0-.25,0-.5-.03-.74v-9.38c.23-7.53-.4-15.07-1.55-22.46-6.33-40.58-21.31-78.07-42.26-113.11-41.18-68.86-99.03-118.66-173.48-148.69-31-12.5-63.03-21.27-96.85-21.55h-15.47c-3.08-.44-6.34.97-9.27-.96H405.33c-2.97,1.93-6.27.52-9.38.96h-15.59c-11.88.89-23.84.96-35.57,3.36-38.86,7.93-75.53,21.64-109.6,42.03-67.51,40.4-116.89,96.77-147.23,169.33-14.01,33.49-23.95,68.23-24.35,105.02.05.63.09,1.27.11,1.9t0,.02h0c.18,6.16-.97,12.25-1.08,18.39-.01.24-.01.47-.01.71,0,.69.01,1.38.04,2.07v1250.46c0,1.96,0,3.93.01,5.9v.03c.06.25.11.51.15.76.86,4.42.82,8.9.79,13.37h0c0,1.01-.02,2,0,3,.21,7.86.61,15.72,2.03,23.44,20.84,113.52,81.43,198.89,182.49,254.6,42.8,23.59,88.69,38.4,138.29,38.84h1338.71c8.46-.17,16.93-.51,25.3-1.56,43.95-5.49,84.78-20.52,122.89-42.57,66.19-38.31,115-92.75,146.37-162.45,14.48-32.19,25.88-65.41,25.32-101.48v-.48c0-1.69,0-3.38,0-5.06,0-.02,0-.03,0-.05.02-.19.04-.38.04-.57.07-1.96-.62-4.03.91-5.78V383.06Z"/>
  <path class="cls-14" d="M405.19,1995.7c5.65-.11,11.3-.32,16.95-.32,425.86-.03,851.71-.04,1277.57-.03,2.19,0,4.38.23,6.57.35.38.38.49.74.32,1.07-.16.32-.32.48-.46.48H405.33c-.45-.31-.62-.64-.51-1,.11-.37.23-.56.37-.56Z"/>
  <path class="cls-7" d="M63.61,403.82c.11,5.33.31,10.66.31,15.99.01,406.57.01,813.14,0,1219.71,0,5.33-.17,10.67-.26,16-.64,1.1-1.29,1.11-1.94.01V403.83c.63-.95,1.26-.95,1.89,0Z"/>
  <path class="cls-11" d="M63.61,403.82c-.63,0-1.26,0-1.89,0v-9.44c1.27-1.1.73-2.8,1.38-4.11.83-3.03-.18-6.5,2.17-9.18.85,7.67-.78,15.17-1.65,22.72Z"/>
  <path class="cls-18" d="M65.31,1680.11c-3.36-3.1-.24-8.25-3.59-11.36v-5.66c.68-1.09,1.39-1.11,2.14-.07,1.6,5.6,1.85,11.32,1.45,17.1Z"/>
  <path class="cls-8" d="M405.33,62.11c-2.75,2.87-6.27,1.7-9.54,1.8-.63-.44-.82-.85-.58-1.24.23-.38.46-.56.68-.56h9.44Z"/>
  <path class="cls-8" d="M1715.68,63.91c-3.28-.1-6.79,1.07-9.54-1.8h9.44c.67.36.91.75.72,1.16-.2.42-.4.64-.61.64Z"/>
  <path class="cls-5" d="M63.86,1663.01c-.71.02-1.43.05-2.14.07,0-2.52,0-5.03,0-7.55.65,0,1.29,0,1.94-.01.49,2.48,1.04,4.97.2,7.49Z"/>
  <path class="cls-16" d="M405.19,1995.7c.05.52.09,1.04.14,1.55h-7.55c-.66-.33-.89-.67-.69-1.04.2-.37.41-.56.63-.56,2.49.01,4.98.03,7.48.04Z"/>
  <path class="cls-16" d="M1706.14,1997.25c.05-.52.1-1.04.14-1.55,2.49-.01,4.98-.02,7.48-.03.63.38.83.74.6,1.08-.22.33-.44.5-.67.5h-7.55Z"/>
  <path class="cls-10" d="M380.71,63.8c.05-.56.08-1.12.08-1.68h5.66c.71.41.93.79.66,1.13-.25.32-.51.49-.78.49-1.88.02-3.75.05-5.63.07Z"/>
  <path class="cls-1" d="M386.34,63.72c.05-.54.08-1.07.11-1.61h5.66c.72.43.94.8.65,1.13-.26.29-.53.44-.82.44-1.87.02-3.74.03-5.61.05Z"/>
  <path class="cls-1" d="M1725.12,63.73c-1.87-.02-3.73-.04-5.6-.06-.8-.26-1.09-.58-.88-.96.23-.4.46-.6.7-.6h5.66c.65.32.88.66.7,1.04-.19.39-.39.58-.59.58Z"/>
  <path class="cls-13" d="M2044.44,379.01c-.03-1.83-.06-3.66-.09-5.5.6-.81,1.14-.82,1.63.11v5.66c-.73,1.15-1.25,1.06-1.54-.28Z"/>
  <path class="cls-9" d="M2044.35,1682.15c-.46-2.23-.51-4.34,1.63-5.85v5.66c-.45.88-.99.91-1.63.19Z"/>
  <path class="cls-17" d="M2044.35,1682.15c.54-.05,1.09-.11,1.63-.19v5.66l-.8.13h-.81c0-1.88-.02-3.74-.02-5.6Z"/>
  <path class="cls-18" d="M386.45,1997.25c0-.56-.03-1.11-.06-1.67,1.89.02,3.78.03,5.67.05.72.34.97.69.75,1.06-.23.37-.46.56-.69.56h-5.66Z"/>
  <path class="cls-4" d="M392.11,1997.25c0-.54-.01-1.08-.05-1.62,1.88,0,3.77.01,5.65.02.06.53.08,1.07.07,1.6h-5.66Z"/>
  <path class="cls-10" d="M1725.12,63.73c-.08-.54-.11-1.08-.11-1.62h5.66c-.02.56,0,1.13.07,1.69-1.87-.02-3.75-.05-5.62-.07Z"/>
  <path class="cls-4" d="M1713.69,1997.25c.01-.53.03-1.06.07-1.58,1.88-.01,3.77-.02,5.65-.04.65.38.85.75.62,1.1-.22.34-.45.52-.68.52h-5.66Z"/>
  <path class="cls-18" d="M1719.35,1997.25c0-.54,0-1.08.05-1.62,1.89-.02,3.77-.03,5.66-.05-.04.56-.06,1.11-.05,1.67h-5.66Z"/>
  <path class="cls-6" d="M391.94,63.67c.08-.52.14-1.04.17-1.56h3.78c.06.61.02,1.21-.1,1.8-1.28-.08-2.57-.16-3.85-.24Z"/>
  <path class="cls-6" d="M1719.35,62.11c.03.52.09,1.04.17,1.56-1.28.08-2.56.16-3.85.24-.12-.6-.16-1.2-.1-1.8h3.78Z"/>
  <path class="cls-3" d="M63.1,390.28c.23,1.6.05,3.06-1.38,4.11v-3.78c.43-.24.89-.35,1.38-.33Z"/>
  <path class="cls-15" d="M2044.44,379.01c.54-.08,1.05.02,1.54.28v3.78c-1.73-.89-1.91-2.37-1.54-4.05Z"/>
  <path class="cls-12" d="M2045.97,373.62c-.54-.02-1.09-.06-1.63-.11,0-1.24.02-2.48.02-3.72.54,0,1.07.01,1.6.06v3.78Z"/>
  <path class="cls-19" d="M600.24,993.98c0-139.04,0-278.08,0-417.12,0-17.7,1.61-19.33,19.38-19.34,49.7-.02,99.4-.02,149.11,0,12.49,0,15.7,3.14,15.95,15.41.04,1.89,0,3.77,0,5.66,0,277.45,0,554.9,0,832.35,0,20.62-1.17,21.78-21.91,21.78-47.5,0-95,0-142.5,0-2.52,0-5.04.08-7.55-.03-8.37-.38-11.21-2.89-12.21-11.22-.41-3.42-.26-6.91-.26-10.37-.01-139.04,0-278.08,0-417.12Z"/>
  <path class="cls-19" d="M1532.25,1373.93c-.89-15.38-2.67-30.71-3.24-46.1-.93-25.14-1.81-50.28-1.77-75.47.18-113.26.08-226.52.08-339.78v-409.62c0-2.84.16-5.68-.08-8.5-.45-5.53-2.12-7.19-7.48-7.72-1.56-.15-3.15-.05-4.72-.05-52.86,0-105.71,0-158.57.01-11.74,0-12.91,1.24-13.01,13.02-.02,2.2,0,4.4,0,6.6v237.85c0,2.52-.11,5.04,0,7.55.17,3.59-1.34,5.27-5.01,4.91-1.56-.16-3.14-.11-4.71-.26-33.97-3.18-67.82-2.03-101.66,2.08-44.04,5.36-86.55,16.16-126.2,36.31-94.51,48.03-156.69,122.88-181.66,226.26-17.44,72.17-13.35,144.53,9.87,214.93,25.27,76.61,75.44,132.73,148,168,50.73,24.66,104.82,36.74,161.17,38.31,40.63,1.13,81.05-1.44,121.32-7.27,53.45-7.75,105.27-21.27,155.23-41.83,10.94-4.5,13.12-7.5,12.44-19.23ZM1336.84,1279.46c-5.24.99-10.41,2.36-15.83,2.23-9.13-.22-18.21.64-27.32,1.18-33.08,1.97-65.34-2.39-96.04-15.13-39.83-16.53-65.53-46.7-80.48-86.47-11.89-31.63-16.01-64.43-14.07-98.18,1.27-22.12,4.18-43.84,12.39-64.5,14.26-35.88,39.59-62.4,72.17-82.12,39-23.6,81.56-31.74,126.74-27.41,7.21.69,14.38,1.47,21.46,2.95,7.46,1.55,7.51,1.61,7.58,9.13.08,7.55.02,15.1.02,22.65v321.76c0,1.89-.23,3.81.04,5.65.77,5.25-2.08,7.39-6.66,8.26Z"/>
</svg>