<svg width="48" height="48" viewBox="0 0 48 48" fill="none" xmlns="http://www.w3.org/2000/svg">
<path d="M29.7998 42V45H18.2002V42H29.7998ZM42 29.7998V18.2002C42 15.4907 41.998 13.6387 41.8809 12.2051C41.7666 10.8065 41.5583 10.0715 41.292 9.54883C40.6688 8.32578 39.6742 7.33119 38.4512 6.70801C37.9285 6.44169 37.1935 6.23341 35.7949 6.11914C34.7198 6.03132 33.4095 6.0081 31.6787 6.00195L29.7998 6H18.2002C15.4907 6 13.6387 6.00204 12.2051 6.11914C10.8065 6.23341 10.0715 6.44169 9.54883 6.70801C8.32578 7.33118 7.33118 8.32578 6.70801 9.54883C6.44169 10.0715 6.23341 10.8065 6.11914 12.2051C6.00204 13.6387 6 15.4907 6 18.2002V29.7998C6 32.5093 6.00204 34.3613 6.11914 35.7949C6.23341 37.1935 6.44169 37.9285 6.70801 38.4512C7.33119 39.6742 8.32578 40.6688 9.54883 41.292C10.0715 41.5583 10.8065 41.7666 12.2051 41.8809C13.6387 41.998 15.4907 42 18.2002 42V45L16.3252 44.998C12.5171 44.9849 10.2975 44.8859 8.57617 44.1465L8.1875 43.9648C6.39996 43.054 4.94595 41.6 4.03516 39.8125C2.99994 37.7804 3 35.1199 3 29.7998V18.2002C3 13.2123 3.00036 10.5624 3.85352 8.57617L4.03516 8.1875C4.88894 6.51185 6.2198 5.12958 7.85547 4.21289L8.1875 4.03516C9.96552 3.12938 12.2245 3.01611 16.3252 3.00195L18.2002 3H29.7998C35.1199 3 37.7804 2.99994 39.8125 4.03516C41.6 4.94595 43.054 6.39996 43.9648 8.1875C45.0001 10.2196 45 12.8801 45 18.2002V29.7998C45 35.1199 45.0001 37.7804 43.9648 39.8125L43.7871 40.1445C42.8704 41.7802 41.4882 43.1111 39.8125 43.9648L39.4238 44.1465C37.4376 44.9996 34.7877 45 29.7998 45V42C32.5093 42 34.3613 41.998 35.7949 41.8809C37.1935 41.7666 37.9285 41.5583 38.4512 41.292C39.6742 40.6688 40.6688 39.6742 41.292 38.4512C41.5583 37.9285 41.7666 37.1935 41.8809 35.7949C41.998 34.3613 42 32.5093 42 29.7998Z" fill="white"/>
<path d="M17.3881 15.2933V33.7009C17.3881 33.8937 17.3036 33.99 17.1346 33.9899H13.7253C13.5749 33.9899 13.4997 33.8936 13.5 33.7009V15.2933C13.5 15.1393 13.5845 15.0622 13.7535 15.0621H17.1627C17.292 15.0432 17.4065 15.1606 17.3881 15.2933Z" fill="white"/>
<path d="M27.4748 34.2788C26.178 34.299 24.8931 34.0226 23.7134 33.4696C21.2091 32.2808 20.1209 29.6498 20.1212 26.9388C20.0995 24.2345 21.5318 21.6578 23.8684 20.3791C25.4814 19.4627 27.3787 19.2299 29.1935 19.3966V13.7038C29.1935 13.5692 29.2499 13.5015 29.3626 13.5015H32.9126C33.0096 13.4873 33.0955 13.5754 33.0817 13.6749V30.7533C33.0817 31.4579 33.1515 32.1601 33.1944 32.8628C33.2013 32.9828 33.1318 33.1015 33.0253 33.1518C32.1094 33.5435 31.1555 33.8341 30.1796 34.0187C29.2874 34.1876 28.3822 34.2746 27.4748 34.2788ZM29.1935 30.6955V22.8065C26.6318 22.0947 24.1216 24.0506 24.122 26.7654C24.06 29.6086 26.5951 31.4749 29.1935 30.6955Z" fill="white"/>
</svg>
