<svg width="48" height="48" viewBox="0 0 48 48" fill="none" xmlns="http://www.w3.org/2000/svg">
<path d="M29.7998 42V45H18.2002V42H29.7998ZM42 29.7998V18.2002C42 15.4907 41.998 13.6387 41.8809 12.2051C41.7666 10.8065 41.5583 10.0715 41.292 9.54883C40.6688 8.32578 39.6742 7.33118 38.4512 6.70801C37.9285 6.44169 37.1935 6.23341 35.7949 6.11914C34.3613 6.00204 32.5093 6 29.7998 6H18.2002C15.4907 6 13.6387 6.00204 12.2051 6.11914C10.8065 6.23341 10.0715 6.44169 9.54883 6.70801C8.32578 7.33118 7.33118 8.32578 6.70801 9.54883C6.44169 10.0715 6.23341 10.8065 6.11914 12.2051C6.00204 13.6387 6 15.4907 6 18.2002V29.7998C6 32.5093 6.00204 34.3613 6.11914 35.7949C6.23341 37.1935 6.44169 37.9285 6.70801 38.4512C7.33118 39.6742 8.32578 40.6688 9.54883 41.292C10.0715 41.5583 10.8065 41.7666 12.2051 41.8809C13.6387 41.998 15.4907 42 18.2002 42V45L16.3252 44.998C12.5171 44.9849 10.2975 44.8859 8.57617 44.1465L8.1875 43.9648C6.39996 43.054 4.94595 41.6 4.03516 39.8125C2.99994 37.7804 3 35.1199 3 29.7998V18.2002C3 13.2123 3.00036 10.5624 3.85352 8.57617L4.03516 8.1875C4.88894 6.51185 6.2198 5.12958 7.85547 4.21289L8.1875 4.03516C9.96552 3.12938 12.2245 3.01611 16.3252 3.00195L18.2002 3H29.7998C35.1199 3 37.7804 2.99994 39.8125 4.03516C41.6 4.94595 43.054 6.39996 43.9648 8.1875C45.0001 10.2196 45 12.8801 45 18.2002V29.7998C45 35.1199 45.0001 37.7804 43.9648 39.8125L43.7871 40.1445C42.8704 41.7802 41.4882 43.1111 39.8125 43.9648L39.4238 44.1465C37.4376 44.9996 34.7877 45 29.7998 45V42C32.5093 42 34.3613 41.998 35.7949 41.8809C37.1935 41.7666 37.9285 41.5583 38.4512 41.292C39.6742 40.6688 40.6688 39.6742 41.292 38.4512C41.5583 37.9285 41.7666 37.1935 41.8809 35.7949C41.998 34.3613 42 32.5093 42 29.7998Z" fill="white"/>
<path d="M12 33.7744V15.3051C12 15.1795 12.0525 15.1077 12.175 15.1077C13.9834 15.1077 15.7911 15 17.6 15C20.5352 15 23.7135 16.0036 24.8275 19.0744C25.09 19.8282 25.23 20.6 25.23 21.4077C25.23 22.9513 24.88 24.2256 24.18 25.2308C22.2246 28.0385 18.8355 27.9949 15.7975 27.9949V33.7564C15.8213 33.927 15.6759 34.0077 15.535 34.0077H12.21C12.07 34.0077 12 33.9359 12 33.7744ZM15.815 18.5718V24.6026C17.0196 24.6908 18.2801 24.7004 19.4375 24.3154C20.7152 23.9468 21.415 22.8407 21.415 21.5154C21.4505 20.386 20.8351 19.3024 19.7875 18.8949C18.644 18.4194 17.0493 18.3909 15.815 18.5718Z" fill="white"/>
<path d="M36.145 23.4111C35.6155 23.132 35.0515 22.9279 34.4686 22.8042C33.7194 22.6279 30.7647 22.0106 30.7636 23.5555C30.7898 24.4181 32.159 24.8407 32.7639 25.0871C34.8877 25.8162 37.291 27.1196 37.2438 29.7396C37.3087 33.0012 34.1486 34.3051 31.4397 34.3054C30.0295 34.32 28.5604 34.1016 27.2698 33.4962C27.1466 33.431 27.0673 33.2916 27.0726 33.1495V30.0286C27.0587 29.9034 27.193 29.7941 27.298 29.8841C28.5625 30.6488 30.0614 31.0201 31.5242 31.04C32.17 31.04 33.4499 30.9774 33.4402 30.0286C33.4402 29.118 31.9091 28.6994 31.2988 28.4681C30.4142 28.1523 29.5753 27.7148 28.8053 27.1677C27.7293 26.4002 27.0542 25.1695 27.0726 23.8156C27.0663 20.7445 29.9752 19.3661 32.5949 19.3654C33.8196 19.3553 35.1347 19.446 36.2748 19.9434C36.4387 19.9916 36.4727 20.1643 36.472 20.319V23.2377C36.4824 23.4188 36.2812 23.4805 36.145 23.4111Z" fill="white"/>
</svg>
